<?xml version="1.0" encoding="UTF-8"?>
<svg fill="none" viewBox="0 0 24 24" xmlns="http://www.w3.org/2000/svg">
<path d="m8.135 21.5h0.40084l0.08719-0.3912 0.95169-4.2709h2.5046l-0.9122 4.0523-0.1373 0.6098h4.0905l0.0871-0.3915 0.9498-4.2706h3.3985l0.0838-0.3966 0.566-2.6801 0.1274-0.6033h-3.3573l0.5593-2.5152h3.3046l0.0838-0.3967 0.5659-2.6801 0.1274-0.60331h-3.2632l0.8571-3.8541 0.1353-0.60854h-4.0886l-0.0872 0.3912-0.9077 4.0714h-2.5092l0.8592-3.8538 0.1357-0.6088h-4.0757l-0.08684 0.39181-0.90219 4.0708h-3.2508l-0.0853 0.39429-0.57975 2.68-0.13103 0.6058h3.2313l-0.55744 2.5152h-3.1497l-0.08377 0.3967-0.56595 2.68-0.1274 0.6033h3.1112l-1.0332 4.6621h3.6736zm2.6749-11.007h2.841l-0.6262 2.8393h-2.841l0.6262-2.8393z" fill="#1D9BF0" stroke="#fff"/>
</svg>
